<svg id="bird" xmlns="http://www.w3.org/2000/svg" xmlns:xlink="http://www.w3.org/1999/xlink" width="60" height="64.553" viewBox="0 0 60 64.553">
  <defs>
    <clipPath id="clip-path">
      <rect id="Rectangle_485" data-name="Rectangle 485" width="60" height="64.553" fill="none"/>
    </clipPath>
  </defs>
  <g id="Groupe_1352" data-name="Groupe 1352" clip-path="url(#clip-path)">
    <path id="Tracé_10907" data-name="Tracé 10907" d="M133.959,8.14c.831-2.068,2.261-2.169,3.988-1.774a7.065,7.065,0,0,1,3.575,1.963c1.1,1.129,2.248,2.215,3.374,3.319,1.188,1.317.848,1.206,2.184.357,1.985-1.262,3.982-2.506,5.948-3.8.513-.337,1.151-.531,1.488-1.112.584-.024.971-.459,1.412-.737,3.051-1.921,6.074-3.886,9.11-5.83.311-.2.687-.646.969-.442.261.189.066.72-.037,1.1a7.442,7.442,0,0,1-1.989,3.4c.548-.236,1.106-.452,1.641-.716.408-.2.5-.05.468.328a5.68,5.68,0,0,1-2.178,4.045c-.313.253-.661.462-1.036.721a9.041,9.041,0,0,0,1.852.641c.534.188.56.349.137.727a25.6,25.6,0,0,1-7.925,4.7c-1.851.719-3.674,1.511-5.516,2.252-.535.215-.581.4-.151.826q7.213,7.175,14.394,14.382c.162.163.376.289.454.542-.176.139-.376.067-.557.067-2.8.006-5.591-.006-8.386.013a1.263,1.263,0,0,1-1.136-.563c-1.364-1.777-2.751-3.538-4.178-5.265a4.071,4.071,0,0,0-3.185-1.474,9.592,9.592,0,0,1-9.471-7.772,12.84,12.84,0,0,1-.146-3.813,2.7,2.7,0,0,0-3.012-2.969,3.409,3.409,0,0,1-1.028-.484,2.444,2.444,0,0,1-1.064-2.633" transform="translate(-125.242 -0.033)" fill="#c2b0f7"/>
    <path id="Tracé_10908" data-name="Tracé 10908" d="M16.145,439.9c0-2.947-.016-5.894.011-8.84a.826.826,0,0,0-.621-.9c-2.077-.793-4.185-1.52-6.212-2.427a9.667,9.667,0,0,1-5.4-5.886c-1.57-4.645-2.289-7-3.806-11.659a2.081,2.081,0,0,1,1.234-2.654,2.024,2.024,0,0,1,2.709,1.061c1.191,2.8,1.555,3.305,2.716,6.12.28.679.6,1.344.837,2.037.161.464.307.338.561.095A10.39,10.39,0,0,1,9.7,415.433a2.572,2.572,0,0,1,3.166.3c1.186,1.138,2.3,2.35,3.541,3.433a8.12,8.12,0,0,0,4.226,1.974,5.866,5.866,0,0,1,5.1,4.662,2.872,2.872,0,0,1,.037.581q0,6.76,0,13.52a2.738,2.738,0,0,1-.44.071q-4.3.006-8.605,0a4.512,4.512,0,0,1-.572-.072" transform="translate(0 -381.06)" fill="#f9c021"/>
    <path id="Tracé_10909" data-name="Tracé 10909" d="M529.989,439.871c0-4.332.065-8.665-.031-13a5.731,5.731,0,0,1,4.464-5.61,9.79,9.79,0,0,0,4.722-1.95,33.2,33.2,0,0,0,3.4-3.3,2.758,2.758,0,0,1,4.256,0c.258.291.559.544.822.832s.374.22.513-.127c.918-2.283,1.081-2.238,2.018-4.513.5-1.217.987-2.443,1.534-3.64a2.033,2.033,0,0,1,2.7-1.075,2.092,2.092,0,0,1,1.233,2.708c-1.107,3.387-1.461,4.447-2.558,7.837-.465,1.438-.87,2.9-1.44,4.3a9.861,9.861,0,0,1-4.222,4.835,44.626,44.626,0,0,1-6.023,2.523c-1.751.721-1.769.678-1.769,2.561q0,3.8,0,7.6a22.92,22.92,0,0,1-2.966.052c-2.217,0-4.435-.024-6.652-.039" transform="translate(-495.746 -381.033)" fill="#f9c021"/>
    <path id="Tracé_10910" data-name="Tracé 10910" d="M480.7,911.279c2.217.015,4.434.042,6.652.039a22.926,22.926,0,0,0,2.967-.052c.952.009,1.905.032,2.857.018.364-.005.493.1.489.478-.016,1.581-.022,3.163,0,4.743.007.435-.172.487-.539.485-2.274-.013-4.549-.007-6.823-.007-2.816,0-5.632-.009-8.448.01-.44,0-.6-.093-.589-.565.03-1.516.034-3.033,0-4.548-.012-.518.18-.611.639-.6.93.028,1.862,0,2.793,0" transform="translate(-446.46 -852.441)" fill="#a086e2"/>
    <path id="Tracé_10911" data-name="Tracé 10911" d="M201.546,911.454a4.507,4.507,0,0,0,.572.072q4.3.007,8.605,0a2.745,2.745,0,0,0,.44-.071c.953,0,1.906.023,2.858.005.4-.007.579.071.571.531-.028,1.559-.025,3.119,0,4.678.006.417-.14.5-.523.5q-7.668-.017-15.336,0c-.447,0-.541-.146-.536-.555.02-1.538.022-3.076,0-4.613-.007-.433.132-.556.557-.544.93.027,1.862,0,2.793,0" transform="translate(-185.401 -852.617)" fill="#a086e2"/>
    <path id="Tracé_10912" data-name="Tracé 10912" d="M314.077,7.063c-.337.58-.975.774-1.488,1.112-1.966,1.292-3.963,2.536-5.948,3.8-1.336.849-1,.96-2.184-.357q3.018-4.166,6.035-8.332c.707-.98,1.392-1.976,2.095-2.959.1-.137.2-.341.379-.323.264.026.193.3.23.472a6.055,6.055,0,0,1-.419,3.729l-.1.139.051.032.048-.171c.434-.062.59-.478.9-.7.184-.136.3-.471.542-.391.221.072.2.394.256.618a5.033,5.033,0,0,1-.394,3.339" transform="translate(-284.803 0)" fill="#a086e2"/>
    <path id="Tracé_10913" data-name="Tracé 10913" d="M89.964,125.452a2.444,2.444,0,0,0,1.064,2.633,3.409,3.409,0,0,0,1.028.484.877.877,0,0,1-.7.592,5.378,5.378,0,0,0-2.9,1.893.842.842,0,0,1-1.483-.109.6.6,0,0,1-.111-.286,5.372,5.372,0,0,1,2.317-4.99,1.089,1.089,0,0,1,.788-.217" transform="translate(-81.247 -117.345)" fill="#f9c021"/>
    <path id="Tracé_10914" data-name="Tracé 10914" d="M431.934,65.092l-.047.171-.05-.032.1-.139Z" transform="translate(-403.96 -60.89)" fill="#fff"/>
  </g>
</svg>
