<svg id="hand" xmlns="http://www.w3.org/2000/svg" xmlns:xlink="http://www.w3.org/1999/xlink" width="60" height="46.846" viewBox="0 0 60 46.846">
  <defs>
    <clipPath id="clip-path">
      <rect id="Rectangle_486" data-name="Rectangle 486" width="60" height="46.846" fill="none"/>
    </clipPath>
  </defs>
  <g id="Groupe_1354" data-name="Groupe 1354" clip-path="url(#clip-path)">
    <path id="Tracé_10915" data-name="Tracé 10915" d="M638.039,16.616a8.259,8.259,0,0,1-1.753,2.193c-1.133,1.141-2.236,2.313-3.36,3.465-.633.649-.831.639-1.476.034-.206-.193-.35-.476-.672-.523-.722-.845-1.541-1.595-2.332-2.372-.4-.369-.826-.71-1.188-1.11-1.332-1.476-2.9-2.711-4.266-4.149-.845-.887-1.792-1.676-2.658-2.543-1.331-1.332-2.676-2.65-4.083-3.9-.336-.351-.674-.7-1.006-1.053a.815.815,0,0,1,0-1.277c1.025-1.065,2.041-2.14,3.1-3.171.527-.513.928-1.125,1.508-1.6a2.68,2.68,0,0,1,3.664.264q1.3,1.3,2.642,2.561c1.883,1.779,3.7,3.624,5.58,5.411,1.8,1.718,3.652,3.389,5.4,5.161.31.314.6.649.9.975Z" transform="translate(-578.039 0)" fill="#a086e2"/>
    <path id="Tracé_10916" data-name="Tracé 10916" d="M139.616,159.827a7.368,7.368,0,0,1-1.7-2.473,15.494,15.494,0,0,1-1.133-4.177,12.135,12.135,0,0,1-.234-1.893c.945-.895,1.9-1.783,2.835-2.686q3.97-3.824,7.932-7.658c.8-.767,1.526-1.6,2.383-2.306a3.962,3.962,0,0,0,1.3.719c1.819.9,3.646,1.784,5.47,2.673a2.241,2.241,0,0,1-.3.35c-.905.7-1.829,1.384-2.725,2.1a16.779,16.779,0,0,0-3.2,2.787c-1.013,1.344-1.569,2.768-.673,4.239.524,1.366,2.7,2.165,4.05,1.794a9.784,9.784,0,0,0,2.111-1.1,15.49,15.49,0,0,1,2.586-1.458c1.065-.344,2.2-.469,3.276-.781.64-.186,1.368,0,1.932-.47.295-.025.453.186.63.364q1.961,1.961,3.923,3.922c1.09,1.083,2.191,2.155,3.287,3.232.551.571,1.091,1.153,1.658,1.708.242.237.411.578.8.638a6.217,6.217,0,0,1,1.125,2.207,3.333,3.333,0,0,1-2.363,3.775c-.19.043-.382.074-.571.116a.657.657,0,0,0-.436.883,2.645,2.645,0,0,1-2.126,3.679,1.352,1.352,0,0,1-.821-.25.6.6,0,0,0-.658-.014c-.229.167-.018.368.026.528a2.193,2.193,0,0,1-1.724,2.773,2.138,2.138,0,0,1-1.479.014c-.171-.077-.353-.19-.548-.039-.241.187-.074.4-.02.587a2.419,2.419,0,0,1-1.133,2.99,2.844,2.844,0,0,1-3.158-.4c-.78-.549-1.518-1.158-2.275-1.74a12.307,12.307,0,0,1,.512-1.344,2.371,2.371,0,0,0-.859-2.4,1.666,1.666,0,0,0-.648-.557,3.038,3.038,0,0,0-2.288-.252,6.271,6.271,0,0,0,.62-1.173c.122-.314-.128-.511-.085-.757a1.744,1.744,0,0,0-.874-1.952c-.039-.264-.247-.37-.445-.5a3.212,3.212,0,0,0-2.849-.189c.141-.209.289-.415.422-.629a2.618,2.618,0,0,0-.659-3.709,2.913,2.913,0,0,0-3.632-.007c-.416.3-.6.808-1.05,1.067-.207-.2-.018-.411.029-.582a2.3,2.3,0,0,0-.392-1.886,2.7,2.7,0,0,0-2.382-1.65,2.965,2.965,0,0,0-2.389.965c-.339.329-.574.793-1.083.927" transform="translate(-128.36 -130.317)" fill="#e29c2b"/>
    <path id="Tracé_10917" data-name="Tracé 10917" d="M346.627,141.951c-.9-1.471-.34-2.895.673-4.239a16.776,16.776,0,0,1,3.2-2.787c.9-.715,1.82-1.4,2.725-2.1a2.237,2.237,0,0,0,.3-.35c.656-.289,1.155-.833,1.844-1.081a9.244,9.244,0,0,1,4-.563,2.985,2.985,0,0,0,2.4-.9c.584-.525,1.235-.976,1.856-1.459,1.408,1.252,2.752,2.569,4.083,3.9.867.867,1.813,1.656,2.658,2.543,1.37,1.437,2.934,2.673,4.266,4.149.362.4.79.742,1.188,1.111a22.2,22.2,0,0,1-4.889,5.864,5.734,5.734,0,0,1-2.5,1.412c-1.1-1.077-2.2-2.149-3.287-3.232q-1.968-1.954-3.923-3.922c-.178-.178-.336-.389-.631-.364a2.176,2.176,0,0,0-1.823-1.152,12.96,12.96,0,0,0-3.72.546,7.161,7.161,0,0,0-1.671.453c-.78.383-1.484.916-2.241,1.349a8.825,8.825,0,0,1-2,1.056,4.431,4.431,0,0,1-2.5-.236" transform="translate(-325.407 -120.766)" fill="#f9c021"/>
    <path id="Tracé_10918" data-name="Tracé 10918" d="M21.345,12.455c-.857.7-1.587,1.539-2.383,2.306q-3.968,3.827-7.932,7.658c-.937.9-1.889,1.791-2.835,2.686a20.016,20.016,0,0,1-1.739,1.668c-.433.483-.8.477-1.3-.022-1.029-1.032-2.028-2.093-3.039-3.143a17.785,17.785,0,0,1-1.51-1.617A2.518,2.518,0,0,1,.8,18.508c1.473-1.494,3.041-2.894,4.517-4.382,1.109-1.118,2.283-2.164,3.4-3.266,1.6-1.57,3.174-3.159,4.79-4.708.446-.428.916-.835,1.362-1.267a2.833,2.833,0,0,1,3.337.13C19.857,6.608,21.3,8.4,22.952,9.991a.634.634,0,0,1-.063.976,16.9,16.9,0,0,1-1.544,1.488" transform="translate(0 -4.137)" fill="#a086e2"/>
    <path id="Tracé_10919" data-name="Tracé 10919" d="M228.94,502.316c.447-.259.633-.768,1.05-1.067a2.913,2.913,0,0,1,3.632.007,3.464,3.464,0,0,1-1.185,2.906c-1.142,1.135-2.247,2.312-3.3,3.53a2.783,2.783,0,0,1-3.509.816,2.788,2.788,0,0,0-.329-.106,1.069,1.069,0,0,1-.288-1.138,13.532,13.532,0,0,1,.412-1.329l0,.005a.234.234,0,0,0,.242-.13l3.28-3.5" transform="translate(-211.466 -470.58)" fill="#f9c021"/>
    <path id="Tracé_10920" data-name="Tracé 10920" d="M716.917,330.808a5.735,5.735,0,0,0,2.5-1.412,22.2,22.2,0,0,0,4.889-5.864c.791.777,1.61,1.527,2.332,2.372a20.466,20.466,0,0,1-2.94,3.982,12.934,12.934,0,0,1-3.327,2.8,4.676,4.676,0,0,1-1,.468c-.387-.06-.556-.4-.8-.638-.567-.555-1.107-1.137-1.658-1.708" transform="translate(-673.902 -304.12)" fill="#edb426"/>
    <path id="Tracé_10921" data-name="Tracé 10921" d="M307,579.8a3.212,3.212,0,0,1,2.849.189c.2.13.406.235.445.5a2.673,2.673,0,0,1-.681,2.262c-1.032.944-1.924,2.033-3.022,2.911a2.445,2.445,0,0,1-2.671.586,1.275,1.275,0,0,0-.682-.124,1.59,1.59,0,0,1-.363-1.694,1.419,1.419,0,0,0,.145-.547,43.034,43.034,0,0,1,3.862-3.958l.122-.128Z" transform="translate(-284.61 -544.789)" fill="#f9c021"/>
    <path id="Tracé_10922" data-name="Tracé 10922" d="M164.873,462.047c.509-.134.744-.6,1.083-.927a2.965,2.965,0,0,1,2.389-.965,2.7,2.7,0,0,1,2.382,1.65.472.472,0,0,0-.233.374,2.25,2.25,0,0,1-.521,1.026c-.78.838-1.574,1.662-2.365,2.489a2.563,2.563,0,0,1-2.938.476c-.485-.249-.756-.723-1.224-.966a3.448,3.448,0,0,1,1.218-2.769c.1-.116.232-.209.209-.389" transform="translate(-153.616 -432.538)" fill="#f9c021"/>
    <path id="Tracé_10923" data-name="Tracé 10923" d="M238.307,515.73a43.031,43.031,0,0,0-3.862,3.958,8.03,8.03,0,0,1-1.642.814.582.582,0,0,1-.231.018,4.189,4.189,0,0,1-2.733-1.831c-.043-.109.01-.185.026-.276a2.788,2.788,0,0,1,.329.106,2.783,2.783,0,0,0,3.509-.816c1.053-1.218,2.158-2.4,3.3-3.53a3.464,3.464,0,0,0,1.185-2.906,2.618,2.618,0,0,1,.659,3.709c-.133.214-.281.419-.422.629l0,0-.122.128" transform="translate(-216.032 -480.592)" fill="#edb426"/>
    <path id="Tracé_10924" data-name="Tracé 10924" d="M377.184,658a3.037,3.037,0,0,1,2.288.252,1.665,1.665,0,0,1,.648.557,2.1,2.1,0,0,1-.473,1.516,17.53,17.53,0,0,1-2.09,2.254,2.666,2.666,0,0,1-2.931.452c-.4-.168-.627-.575-1.052-.689l.212-1.187-.005.006.121-.111,3.165-2.935.122-.118Z" transform="translate(-351.16 -618.422)" fill="#f9c021"/>
    <path id="Tracé_10925" data-name="Tracé 10925" d="M373.574,676.734c.425.114.653.521,1.052.689a2.666,2.666,0,0,0,2.931-.452,17.53,17.53,0,0,0,2.09-2.254,2.1,2.1,0,0,0,.473-1.516,2.37,2.37,0,0,1,.859,2.4,12.32,12.32,0,0,0-.512,1.344,3.253,3.253,0,0,0-1.185,1.075,3.786,3.786,0,0,1-2.525,1.623,3.036,3.036,0,0,1-3.057-2.287c-.057-.2-.085-.417-.126-.626" transform="translate(-351.16 -632.81)" fill="#edb426"/>
    <path id="Tracé_10926" data-name="Tracé 10926" d="M317.783,599.03l-3.165,2.935-.121.111,0-.006a2.82,2.82,0,0,1-3.2-.25,1.649,1.649,0,0,1-.794-1.15,1.275,1.275,0,0,1,.681.124,2.445,2.445,0,0,0,2.671-.586c1.1-.879,1.99-1.967,3.022-2.911a2.674,2.674,0,0,0,.681-2.262,1.744,1.744,0,0,1,.874,1.952c-.043.245.207.443.085.757a6.266,6.266,0,0,1-.62,1.173l0,0-.122.119" transform="translate(-291.877 -559.333)" fill="#edb426"/>
    <path id="Tracé_10927" data-name="Tracé 10927" d="M163.827,491.206c.468.243.739.717,1.224.966a2.563,2.563,0,0,0,2.938-.476c.791-.827,1.585-1.651,2.365-2.489a2.25,2.25,0,0,0,.521-1.026.472.472,0,0,1,.233-.374,2.3,2.3,0,0,1,.392,1.886c-.046.171-.236.381-.029.582l-3.28,3.5-.242.129,0-.005a2.955,2.955,0,0,1-4.023-1.942,3.93,3.93,0,0,1-.1-.746" transform="translate(-153.997 -458.539)" fill="#edb426"/>
    <path id="Tracé_10928" data-name="Tracé 10928" d="M353.67,303.213a4.431,4.431,0,0,0,2.5.236,8.827,8.827,0,0,0,2-1.056c.757-.433,1.462-.965,2.241-1.349a7.16,7.16,0,0,1,1.671-.453,12.959,12.959,0,0,1,3.72-.546,2.176,2.176,0,0,1,1.823,1.152c-.564.471-1.292.284-1.932.469-1.077.312-2.211.437-3.276.781a15.477,15.477,0,0,0-2.586,1.458,9.789,9.789,0,0,1-2.111,1.1c-1.354.371-3.527-.428-4.05-1.794" transform="translate(-332.45 -282.028)" fill="#edb426"/>
    <path id="Tracé_10929" data-name="Tracé 10929" d="M232.522,587.321l.242-.129a.234.234,0,0,1-.242.129" transform="translate(-218.571 -551.961)" fill="#fff"/>
    <path id="Tracé_10930" data-name="Tracé 10930" d="M371.24,583.623l.122-.128-.122.128" transform="translate(-348.966 -548.485)" fill="#ffbc85"/>
    <path id="Tracé_10931" data-name="Tracé 10931" d="M431.778,659.767l.122-.119-.122.119" transform="translate(-405.871 -620.069)" fill="#ffbc85"/>
    <path id="Tracé_10932" data-name="Tracé 10932" d="M377.018,710.651l.121-.111-.121.111" transform="translate(-354.397 -667.908)" fill="#fff"/>
  </g>
</svg>
