<svg xmlns="http://www.w3.org/2000/svg" width="22" height="21" viewBox="0 0 22 21">
  <g id="Linkedin" transform="translate(1 1)">
    <path id="Tracé_571" data-name="Tracé 571" d="M496,2574a6,6,0,0,1,6,6v7h-4v-7a2,2,0,0,0-4,0v7h-4v-7a6,6,0,0,1,6-6Z" transform="translate(-482 -2568)" fill="none" stroke="#4634ad" stroke-linecap="round" stroke-linejoin="round" stroke-width="2"/>
    <path id="Tracé_572" data-name="Tracé 572" d="M486,2575h-4v12h4Z" transform="translate(-482 -2568)" fill="none" stroke="#4634ad" stroke-linecap="round" stroke-linejoin="round" stroke-width="2"/>
    <path id="Tracé_573" data-name="Tracé 573" d="M484,2572a2,2,0,1,0-2-2A2,2,0,0,0,484,2572Z" transform="translate(-482 -2568)" fill="none" stroke="#4634ad" stroke-linecap="round" stroke-linejoin="round" stroke-width="2"/>
  </g>
</svg>
