<svg xmlns="http://www.w3.org/2000/svg" xmlns:xlink="http://www.w3.org/1999/xlink" width="187.728" height="86.736" viewBox="0 0 187.728 86.736">
  <defs>
    <linearGradient id="linear-gradient" x1="0.5" x2="0.5" y2="1" gradientUnits="objectBoundingBox">
      <stop offset="0" stop-color="#fccc00"/>
      <stop offset="1" stop-color="#bf6233"/>
    </linearGradient>
    <clipPath id="clip-path">
      <rect id="Rectangle_448" data-name="Rectangle 448" width="187.728" height="86.736" transform="translate(0 0)" fill="url(#linear-gradient)"/>
    </clipPath>
  </defs>
  <g id="trait" clip-path="url(#clip-path)">
    <path id="Tracé_10543" data-name="Tracé 10543" d="M154.693,86.736c-13.629,0-26.556-4.171-36.651-12.376-8.3-6.743-14.224-15.689-19.957-24.34-1.937-2.922-3.939-5.944-6-8.821C83.722,29.494,74.206,20.146,63.8,13.417,45.746,1.734,18.467-4.436,1.25,9.622A.766.766,0,1,1,.281,8.436C18.092-6.107,46.126.156,64.636,12.131c10.564,6.834,20.22,16.315,28.7,28.178,2.072,2.9,4.082,5.932,6.026,8.865,5.669,8.555,11.532,17.4,19.647,24,17.617,14.32,44.156,16,67.61,4.285a.766.766,0,1,1,.685,1.371,73.261,73.261,0,0,1-32.611,7.909" transform="translate(0 0)" fill="url(#linear-gradient)"/>
  </g>
</svg>
