<svg id="tree" xmlns="http://www.w3.org/2000/svg" xmlns:xlink="http://www.w3.org/1999/xlink" width="60" height="59.987" viewBox="0 0 60 59.987">
  <defs>
    <clipPath id="clip-path">
      <rect id="Rectangle_484" data-name="Rectangle 484" width="60" height="59.987" fill="none"/>
    </clipPath>
  </defs>
  <g id="Groupe_1350" data-name="Groupe 1350" clip-path="url(#clip-path)">
    <path id="Tracé_10897" data-name="Tracé 10897" d="M59.087,28.049a5.259,5.259,0,0,0-2.721-1.976.911.911,0,0,1,.125-.175,4.164,4.164,0,0,0-.041-6.32.413.413,0,0,1-.137-.58,5.586,5.586,0,0,0,.522-2.858A4.806,4.806,0,0,0,54.3,12.052a5.376,5.376,0,0,0-3.191-.613c-.383.024-.521-.1-.468-.467a1.23,1.23,0,0,0,.008-.362,5.207,5.207,0,0,0-7.393-3.9c-.825.377-.811.407-1.082-.458A4.684,4.684,0,0,0,35.7,3.592c-.691.312-.7.346-.915-.385a3.9,3.9,0,0,0-1.13-1.748A5.184,5.184,0,0,0,25.077,3.64c-.087.268-.173.292-.356.163A4.966,4.966,0,0,0,21.6,3.189a3.827,3.827,0,0,0-2.771,1.425A4.689,4.689,0,0,0,17.6,7.177a5.573,5.573,0,0,0-4.621-.739,5.1,5.1,0,0,0-3.642,4.441c-.084.563-.294.594-.7.557a4.555,4.555,0,0,0-2.789.525,5.178,5.178,0,0,0-2.17,6.931c.173.355.119.473-.157.728a4.113,4.113,0,0,0-.972,5.1,6.677,6.677,0,0,0,1.03,1.321c-.351.185-.686.351-1.01.534a5.154,5.154,0,0,0,3.677,9.5.519.519,0,0,1,.609.226c1.446,1.958,3.04,2.461,5.221,1.554.566-.235.7-.011.913.358a4.014,4.014,0,0,0,5.909,1.4c.274-.178.534-.6.761-.575.308.036.564.419.869.612A3.675,3.675,0,0,0,23.4,40.3c.636-.141,1.2-.446,1.8-.643a5.12,5.12,0,0,0-1.27-2.235c-1.371-1.613-2.706-3.266-4.195-4.766-1.059-1.067-.59-2.015.3-2.741.915-.75,1.416-.675,2.55.2q1.89,1.461,3.791,2.909c.156.119.365.313.5.279.232-.057.1-.343.134-.53.2-1.159.458-2.312.568-3.48s.407-2.286.627-3.425a1.349,1.349,0,0,1,1.851-1.186,3.334,3.334,0,0,0,.714.084A1.17,1.17,0,0,1,32.1,26.115c.007,2.181,0,4.362,0,6.542,0,.217,0,.435,0,.666A.927.927,0,0,0,32.764,33c1.032-.892,2.2-1.595,3.261-2.446a5.66,5.66,0,0,1,1.563-.943,1.221,1.221,0,0,1,1.3.135,2.219,2.219,0,0,1,1.1,1.771,1.209,1.209,0,0,1-.252.725c-1.236,1.643-2.476,3.283-3.7,4.933a6.324,6.324,0,0,0-1.27,2.376,3.965,3.965,0,0,0,2.673.823,3.683,3.683,0,0,0,2.168-.807c.022-.059.046-.114.127-.084.389-.48.7-.579,1.212-.04a3.182,3.182,0,0,0,2.562.942,4.251,4.251,0,0,0,3.7-2.4c.133-.271.181-.421.551-.2a3.2,3.2,0,0,0,1.928.541,4.346,4.346,0,0,0,3.466-1.967.481.481,0,0,1,.577-.287,5.1,5.1,0,0,0,4.4-1.046,5.233,5.233,0,0,0,.966-6.978" transform="translate(0 0)" fill="#a086e2"/>
    <path id="Tracé_10898" data-name="Tracé 10898" d="M324.853,425.441a5.12,5.12,0,0,0-1.27-2.235c-1.371-1.613-2.706-3.266-4.195-4.766-1.059-1.067-.59-2.015.3-2.741.915-.75,1.416-.675,2.55.2q1.89,1.461,3.791,2.909c.156.119.365.313.5.279.232-.057.1-.343.134-.53.2-1.159.458-2.312.568-3.48s.407-2.286.627-3.425a1.349,1.349,0,0,1,1.851-1.186,3.335,3.335,0,0,0,.714.084,1.17,1.17,0,0,1,1.327,1.341c.007,2.181,0,4.362,0,6.542v.666a.927.927,0,0,0,.665-.327c1.032-.892,2.2-1.595,3.261-2.446a5.666,5.666,0,0,1,1.563-.943,1.222,1.222,0,0,1,1.3.135,2.219,2.219,0,0,1,1.1,1.771,1.209,1.209,0,0,1-.252.725c-1.236,1.643-2.476,3.283-3.7,4.933a6.324,6.324,0,0,0-1.27,2.376,3.692,3.692,0,0,0-.565,2.143c-.053,2.767-.159,5.543,0,8.3a11.733,11.733,0,0,0,3.552,8.278,1.766,1.766,0,0,1,.488.6.8.8,0,0,1-.614,1.088,1.414,1.414,0,0,1-.241.023q-7.395,0-14.79,0a.712.712,0,0,1-.767-.521.841.841,0,0,1,.226-.935,11.044,11.044,0,0,0,3.313-5.743,17.763,17.763,0,0,0,.451-3.169c.123-2.1.086-4.189.09-6.284a15.983,15.983,0,0,0-.493-3.322,1.293,1.293,0,0,0-.207-.351" transform="translate(-299.652 -385.779)" fill="#f9c021"/>
    <path id="Tracé_10899" data-name="Tracé 10899" d="M660.056,657.944c.022-.059.046-.113.127-.084l-.127.084" transform="translate(-620.453 -618.381)" fill="#fdfefc"/>
    <path id="Tracé_10900" data-name="Tracé 10900" d="M763.177,431.086a1.145,1.145,0,0,1,1.27,1.015,1.126,1.126,0,0,1-1.178,1.047,2.123,2.123,0,0,0-1.957,1.959c-.058.785-.373,1.1-1.069,1.073-.673-.028-1-.408-.992-1.169a4.168,4.168,0,0,1,3.927-3.925" transform="translate(-713.695 -405.221)" fill="#8d78ce"/>
    <path id="Tracé_10901" data-name="Tracé 10901" d="M536.2,293.653A4.07,4.07,0,0,1,540,296.933c.093.514.254,1.01-.191,1.477a.985.985,0,0,1-1.036.307.927.927,0,0,1-.711-.814,2.42,2.42,0,0,0-.693-1.62,2,2,0,0,0-1.285-.577,1.122,1.122,0,0,1-1.173-.994c-.055-.686.4-1.059,1.284-1.057" transform="translate(-502.816 -276.034)" fill="#8d78ce"/>
    <path id="Tracé_10902" data-name="Tracé 10902" d="M553.125,141.913A4.014,4.014,0,0,1,557,138.059c.818,0,1.2.317,1.216,1,.01.588-.45,1-1.145,1.065a2.071,2.071,0,0,0-1.731,1.139,1.419,1.419,0,0,0-.16.635c-.027.872-.387,1.266-1.117,1.255-.669-.011-.942-.37-.94-1.24" transform="translate(-519.937 -129.775)" fill="#8d78ce"/>
    <path id="Tracé_10903" data-name="Tracé 10903" d="M363.187,176.315a4.1,4.1,0,0,1,4.047-3.923,1.026,1.026,0,0,1,.127,2.046,2.9,2.9,0,0,0-.931.2,1.978,1.978,0,0,0-1.186,1.812c-.032.469-.194.889-.712,1a1.075,1.075,0,0,1-1.194-.358c-.2-.261-.123-.537-.151-.783" transform="translate(-341.396 -162.047)" fill="#8d78ce"/>
    <path id="Tracé_10904" data-name="Tracé 10904" d="M713.728,279.454a1.16,1.16,0,0,1-.992,1.23,1.138,1.138,0,0,1-1.07-1.152,2.113,2.113,0,0,0-1.972-2c-.807-.058-1.108-.4-1.06-1.2.034-.557.466-.881,1.152-.864a4.222,4.222,0,0,1,3.941,3.98" transform="translate(-666.112 -258.945)" fill="#8d78ce"/>
    <path id="Tracé_10905" data-name="Tracé 10905" d="M138.893,434.785a4.122,4.122,0,0,1,4.167-3.833,1.021,1.021,0,0,1,.188,2c-.308.082-.638.092-.936.2a1.889,1.889,0,0,0-1.349,1.682c-.092.934-.377,1.253-1.192,1.214-.6-.029-.883-.437-.877-1.26" transform="translate(-130.559 -405.086)" fill="#8d78ce"/>
    <path id="Tracé_10906" data-name="Tracé 10906" d="M212.571,262.827c0,1.011-.544,1.443-1.419,1.165a.7.7,0,0,1-.513-.6c-.058-.294-.079-.6-.15-.888a2.081,2.081,0,0,0-1.8-1.463,1.272,1.272,0,0,1-.963-.421.972.972,0,0,1-.166-1.07.949.949,0,0,1,.851-.574,4,4,0,0,1,4.159,3.846" transform="translate(-195.021 -243.426)" fill="#8d78ce"/>
  </g>
</svg>
